<svg width="463" height="463" viewBox="0 0 463 463" fill="none" xmlns="http://www.w3.org/2000/svg">
<path d="M203.094 1.13107C192.894 2.53107 157.894 11.2311 149.994 14.4311C128.494 22.8311 103.094 37.7311 84.0937 52.9311C58.0937 73.7311 39.8937 96.9311 23.2937 130.331C14.9937 146.831 10.8937 158.831 5.59369 181.331C2.19369 195.831 1.19369 202.231 0.593693 213.831C-0.806307 239.631 0.0936935 251.631 5.19369 276.831C11.0937 306.031 15.8937 319.431 28.8937 342.931C34.9937 353.931 44.9937 369.131 51.2937 376.831C96.2937 431.731 161.794 462.831 232.794 462.831C282.094 462.831 336.594 444.431 369.994 416.431C373.294 413.631 379.494 408.631 383.594 405.431C400.094 392.331 417.794 371.731 430.094 351.331C441.294 332.831 451.394 308.931 456.494 288.631C461.794 267.931 463.094 256.531 462.994 231.831C462.994 210.731 462.694 206.731 460.194 192.831C455.594 166.931 449.594 148.631 438.494 126.631C431.294 112.331 426.494 104.531 415.894 90.5311C407.394 79.3311 385.894 57.2311 375.394 49.1311C359.194 36.6311 337.494 23.9311 319.594 16.5311C302.794 9.53107 277.194 3.23108 256.094 0.831085C245.194 -0.368927 212.694 -0.268921 203.094 1.13107ZM255.094 25.8311C286.594 29.3311 306.394 35.8311 336.594 52.5311C339.094 53.9311 346.994 59.2311 354.094 64.3311C367.594 74.0311 386.094 91.9311 395.794 104.531C418.794 134.531 433.794 171.831 437.694 208.731C439.194 222.931 438.394 255.131 436.194 266.831C433.594 281.031 421.694 314.731 414.694 327.731C407.294 341.431 403.494 347.931 402.094 349.531C401.594 350.131 398.594 354.031 395.594 358.031C388.294 367.731 366.994 389.031 357.594 395.931C329.194 416.931 298.294 429.931 261.594 436.231C233.094 441.131 198.194 438.131 168.094 428.231C155.594 424.131 137.894 416.431 130.594 411.931C127.794 410.231 125.294 408.831 124.994 408.831C124.094 408.831 104.394 394.731 96.9937 388.731C93.1937 385.631 86.1937 378.831 81.4937 373.731C76.8937 368.531 72.0937 363.231 70.7937 361.831C66.0937 356.631 53.6937 338.031 49.3937 329.831C40.4937 312.631 31.1937 286.831 28.1937 271.131C25.6937 257.931 24.2937 237.331 24.8937 221.931C26.1937 185.131 40.0937 143.331 60.5937 114.331C64.0937 109.331 67.1937 105.131 67.5937 104.831C67.8937 104.531 70.4937 101.331 73.3937 97.7311C83.3937 85.0311 100.494 69.8311 118.294 58.0311C145.194 39.9311 170.494 30.8311 205.594 26.3311C218.394 24.7311 242.894 24.5311 255.094 25.8311Z" fill="white"/>
<path d="M222.593 69.531C217.693 72.731 200.093 85.3311 199.593 85.8311C199.293 86.131 195.793 88.631 191.793 91.3311C187.793 94.031 184.093 96.8311 183.493 97.4311C182.893 98.231 183.393 100.831 185.093 105.431C197.193 137.731 200.093 146.931 206.493 175.631C211.393 197.331 215.793 223.431 218.593 247.331C220.293 261.131 220.893 273.731 221.293 301.431C222.093 352.231 220.693 364.131 212.393 375.231C208.293 380.731 204.893 382.931 193.093 387.831L190.093 389.031L193.593 390.431C198.793 392.631 214.793 394.831 225.793 394.831C245.293 394.831 260.393 386.331 266.793 371.831C274.093 355.431 276.393 342.731 277.293 314.831C278.393 279.131 273.793 232.331 263.093 172.331C261.293 162.431 260.093 153.831 260.293 153.331C260.493 152.731 265.093 149.031 270.593 144.931C278.593 138.931 280.393 137.231 279.593 135.931C279.093 134.931 275.893 131.131 272.393 127.231C268.893 123.431 264.693 118.431 262.893 116.231C261.093 113.931 253.293 103.731 245.393 93.631C237.493 83.531 229.993 73.531 228.593 71.531C227.193 69.531 225.893 67.8311 225.593 67.8311C225.293 67.8311 223.893 68.531 222.593 69.531Z" fill="white"/>
</svg>
