<svg width="1156" height="463" viewBox="0 0 1156 463" fill="none" xmlns="http://www.w3.org/2000/svg">
<path d="M203.094 1.13108C192.894 2.53108 157.894 11.2311 149.994 14.4311C128.494 22.8311 103.094 37.7311 84.0937 52.9311C58.0937 73.7311 39.8937 96.9311 23.2937 130.331C14.9937 146.831 10.8937 158.831 5.59369 181.331C2.19369 195.831 1.19369 202.231 0.593694 213.831C-0.806307 239.631 0.0936935 251.631 5.19369 276.831C11.0937 306.031 15.8937 319.431 28.8937 342.931C34.9937 353.931 44.9937 369.131 51.2937 376.831C96.2937 431.731 161.794 462.831 232.794 462.831C282.094 462.831 336.594 444.431 369.994 416.431C373.294 413.631 379.494 408.631 383.594 405.431C400.094 392.331 417.794 371.731 430.094 351.331C441.294 332.831 451.394 308.931 456.494 288.631C461.794 267.931 463.094 256.531 462.994 231.831C462.994 210.731 462.694 206.731 460.194 192.831C455.594 166.931 449.594 148.631 438.494 126.631C431.294 112.331 426.494 104.531 415.894 90.5311C407.394 79.3311 385.894 57.2311 375.394 49.1311C359.194 36.6311 337.494 23.9311 319.594 16.5311C302.794 9.53108 277.194 3.23108 256.094 0.831082C245.194 -0.368918 212.694 -0.268918 203.094 1.13108ZM255.094 25.8311C286.594 29.3311 306.394 35.8311 336.594 52.5311C339.094 53.9311 346.994 59.2311 354.094 64.3311C367.594 74.0311 386.094 91.9311 395.794 104.531C418.794 134.531 433.794 171.831 437.694 208.731C439.194 222.931 438.394 255.131 436.194 266.831C433.594 281.031 421.694 314.731 414.694 327.731C407.294 341.431 403.494 347.931 402.094 349.531C401.594 350.131 398.594 354.031 395.594 358.031C388.294 367.731 366.994 389.031 357.594 395.931C329.194 416.931 298.294 429.931 261.594 436.231C233.094 441.131 198.194 438.131 168.094 428.231C155.594 424.131 137.894 416.431 130.594 411.931C127.794 410.231 125.294 408.831 124.994 408.831C124.094 408.831 104.394 394.731 96.9937 388.731C93.1937 385.631 86.1937 378.831 81.4937 373.731C76.8937 368.531 72.0937 363.231 70.7937 361.831C66.0937 356.631 53.6937 338.031 49.3937 329.831C40.4937 312.631 31.1937 286.831 28.1937 271.131C25.6937 257.931 24.2937 237.331 24.8937 221.931C26.1937 185.131 40.0937 143.331 60.5937 114.331C64.0937 109.331 67.1937 105.131 67.5937 104.831C67.8937 104.531 70.4937 101.331 73.3937 97.7311C83.3937 85.0311 100.494 69.8311 118.294 58.0311C145.194 39.9311 170.494 30.8311 205.594 26.3311C218.394 24.7311 242.894 24.5311 255.094 25.8311Z" fill="white"/>
<path d="M222.593 69.531C217.693 72.731 200.093 85.3311 199.593 85.8311C199.293 86.1311 195.793 88.6311 191.793 91.3311C187.793 94.0311 184.093 96.8311 183.493 97.4311C182.893 98.2311 183.393 100.831 185.093 105.431C197.193 137.731 200.093 146.931 206.493 175.631C211.393 197.331 215.793 223.431 218.593 247.331C220.293 261.131 220.893 273.731 221.293 301.431C222.093 352.231 220.693 364.131 212.393 375.231C208.293 380.731 204.893 382.931 193.093 387.831L190.093 389.031L193.593 390.431C198.793 392.631 214.793 394.831 225.793 394.831C245.293 394.831 260.393 386.331 266.793 371.831C274.093 355.431 276.393 342.731 277.293 314.831C278.393 279.131 273.793 232.331 263.093 172.331C261.293 162.431 260.093 153.831 260.293 153.331C260.493 152.731 265.093 149.031 270.593 144.931C278.593 138.931 280.393 137.231 279.593 135.931C279.093 134.931 275.893 131.131 272.393 127.231C268.893 123.431 264.693 118.431 262.893 116.231C261.093 113.931 253.293 103.731 245.393 93.6311C237.493 83.5311 229.993 73.531 228.593 71.531C227.193 69.531 225.893 67.831 225.593 67.831C225.293 67.831 223.893 68.531 222.593 69.531Z" fill="white"/>
<path d="M616.594 114.631C614.594 115.331 613.694 117.031 610.894 125.331C609.194 130.831 601.394 153.931 593.694 176.731C585.894 199.431 579.594 218.731 579.594 219.431C579.594 220.531 582.294 220.831 592.594 220.831C607.994 220.831 608.194 220.731 611.094 210.031L612.994 202.831H626.094H639.094L642.094 211.531L645.094 220.331L659.094 220.631C666.694 220.731 673.594 220.631 674.194 220.431C675.694 219.831 675.294 218.331 662.594 181.831C657.594 167.231 650.394 146.431 646.694 135.531C642.994 124.731 639.694 115.631 639.494 115.431C638.694 114.631 618.994 113.931 616.594 114.631ZM630.694 166.831C631.794 172.031 632.994 177.131 633.194 178.031C633.694 179.631 632.894 179.831 627.094 179.831H620.394L620.894 177.031C622.194 169.231 625.894 151.131 626.394 149.831C626.694 149.031 627.294 150.331 627.794 152.831C628.294 155.331 629.594 161.631 630.694 166.831Z" fill="white"/>
<path d="M679.794 167.031L680.094 220.331H693.094H706.094V196.831C706.094 183.931 705.694 169.931 705.294 165.831L704.494 158.331L709.094 168.331C711.594 173.831 717.394 184.531 721.894 192.031L730.094 205.831H734.694C739.194 205.831 739.394 205.731 742.894 200.031C748.194 191.431 758.194 171.531 760.694 164.731C761.894 161.431 763.294 158.531 763.694 158.231C764.894 157.531 764.794 160.631 763.094 174.331C762.294 180.931 761.594 194.131 761.594 203.631V220.931L776.394 220.631L791.094 220.331L791.394 167.731L791.594 115.131L788.494 114.431C782.994 113.331 767.194 113.831 764.694 115.131C762.194 116.431 742.294 154.331 739.394 163.331C738.594 166.031 737.494 168.231 736.994 168.231C736.494 168.131 734.794 164.931 733.094 161.031C728.894 151.231 711.594 120.231 708.394 116.731L705.794 113.831H692.694H679.594L679.794 167.031Z" fill="white"/>
<path d="M832.394 114.531C831.394 114.731 830.594 115.031 830.594 115.231C830.594 115.331 823.794 135.431 815.594 159.931C807.294 184.331 799.394 207.631 798.094 211.631C796.694 215.631 795.594 219.331 795.594 219.831C795.594 220.431 801.094 220.831 809.494 220.831C821.794 220.831 823.494 220.631 824.094 219.031C824.494 218.131 825.894 214.131 827.094 210.331L829.394 203.331H842.594H855.694L858.294 210.831C859.694 214.931 861.294 218.931 861.794 219.531C862.994 221.031 891.594 221.431 891.594 219.931C891.594 219.031 889.694 213.431 877.994 179.331C874.894 170.531 868.894 152.831 864.494 139.931C860.094 127.031 856.094 115.931 855.594 115.331C854.594 114.131 836.194 113.531 832.394 114.531ZM846.494 164.331C847.694 170.431 848.894 176.331 849.194 177.531C849.794 179.731 849.594 179.831 843.194 179.831C835.594 179.831 835.794 180.131 838.494 170.831C839.494 167.231 840.594 162.031 840.994 159.331C841.394 156.531 841.994 153.431 842.294 152.431C843.194 149.331 844.194 152.231 846.494 164.331Z" fill="white"/>
<path d="M897.794 114.631C896.794 115.331 896.594 126.631 896.794 167.931L897.094 220.331H910.094H923.094L923.394 200.331C923.594 185.731 923.194 178.231 922.094 172.331C920.294 162.731 920.294 162.831 921.494 162.831C921.994 162.831 923.394 165.531 924.594 168.831C925.794 172.131 929.294 178.531 932.394 183.131C939.794 194.131 952.094 211.331 956.294 216.631L959.794 220.931L970.394 220.631L981.094 220.331L981.394 167.931C981.594 126.631 981.394 115.331 980.394 114.631C978.794 113.631 957.194 113.831 955.494 114.931C953.994 115.831 954.894 162.431 956.394 167.531C956.994 169.231 957.194 170.931 956.894 171.231C956.394 171.731 945.294 155.031 938.294 143.331C934.094 136.231 925.094 122.431 921.994 118.231L918.994 114.131L909.094 114.031C903.594 113.931 898.494 114.231 897.794 114.631Z" fill="white"/>
<path d="M1023.59 114.431C1022.69 114.731 1020.69 118.731 1018.89 124.131C1017.19 129.231 1010.69 147.931 1004.59 165.831C988.694 212.331 986.494 218.931 987.194 219.931C987.494 220.431 993.494 220.831 1000.49 220.831C1010.69 220.831 1013.59 220.531 1014.59 219.331C1015.29 218.531 1016.79 214.631 1017.99 210.631L1020.29 203.331H1033.59H1046.89L1049.39 211.331C1050.69 215.731 1052.29 219.631 1052.99 220.031C1053.59 220.431 1060.29 220.831 1067.89 220.831C1078.29 220.831 1081.79 220.531 1082.19 219.531C1082.39 218.831 1081.59 215.331 1080.19 211.731C1078.89 208.231 1075.79 199.231 1073.29 191.831C1059.09 149.831 1048.59 119.631 1047.39 117.131C1046.09 114.331 1046.09 114.331 1035.59 114.131C1029.79 114.031 1024.39 114.231 1023.59 114.431ZM1035.59 153.431C1035.59 154.631 1036.69 160.531 1038.09 166.631C1039.49 172.731 1040.59 178.231 1040.59 178.731C1040.59 179.431 1037.99 179.831 1033.99 179.831C1027.59 179.831 1027.39 179.731 1027.89 177.531C1028.19 176.331 1029.69 169.331 1031.19 162.031C1032.89 153.831 1034.19 149.231 1034.69 150.031C1035.19 150.731 1035.59 152.331 1035.59 153.431Z" fill="white"/>
<path d="M1070.39 114.531C1068.79 114.931 1068.59 116.431 1068.59 127.431V139.831L1072.39 140.031C1074.39 140.031 1079.99 140.031 1084.69 139.831C1099.09 139.431 1097.59 134.531 1097.59 180.931V220.931L1111.89 220.631L1126.09 220.331L1126.39 180.531C1126.49 158.731 1126.99 140.831 1127.39 140.731C1127.79 140.631 1133.99 140.531 1141.09 140.331C1148.29 140.231 1154.29 140.031 1154.69 139.931C1155.49 139.731 1155.19 116.531 1154.29 115.131C1153.69 114.231 1143.69 113.931 1112.79 114.031C1090.39 114.031 1071.29 114.331 1070.39 114.531Z" fill="white"/>
<path d="M620.993 238.732C610.493 240.432 598.893 247.832 592.593 256.932C586.593 265.732 584.393 273.732 583.793 288.932C583.193 305.532 584.493 313.732 589.193 323.532C595.093 335.732 603.993 342.632 618.793 346.432C630.793 349.532 655.993 346.432 659.093 341.432C660.193 339.632 659.993 337.632 658.293 328.832C657.193 323.032 656.093 318.132 655.993 317.932C655.793 317.832 652.693 318.632 648.893 319.932C627.493 327.132 613.393 316.832 613.293 293.832C613.293 279.732 617.393 269.532 624.593 265.632C627.593 263.932 629.593 263.732 639.093 264.132C645.193 264.432 650.993 264.932 652.193 265.332C654.093 265.932 654.393 265.332 656.093 257.332C657.093 252.532 657.893 247.132 657.993 245.132C658.093 241.832 657.893 241.532 653.593 240.132C648.293 238.432 628.293 237.632 620.993 238.732Z" fill="white"/>
<path d="M669.594 292.831V344.831H684.094H698.594V292.831V240.831H684.094H669.594V292.831Z" fill="white"/>
<path d="M704.794 253.031L705.094 265.331L719.394 265.831L733.694 266.331L733.894 305.331L734.094 344.331L747.994 344.631C758.494 344.831 762.194 344.531 762.794 343.631C763.294 342.931 763.494 325.231 763.394 304.331L763.094 266.331H777.994H792.894L803.494 287.331L814.094 308.331L814.394 326.531L814.694 344.831H828.694H842.594V327.231V309.531L860.094 275.231L877.694 240.831H861.894H845.994L839.394 257.531C835.694 266.831 832.394 276.731 831.994 279.531C831.694 282.431 830.994 284.831 830.594 284.831C830.194 284.831 829.594 282.331 829.194 279.331C828.594 273.631 827.794 271.431 819.694 252.831L814.694 241.331L759.594 241.031L704.494 240.831L704.794 253.031Z" fill="white"/>
<path d="M882.693 291.231C876.893 294.431 875.793 305.431 880.793 310.731C883.893 314.131 893.593 313.231 893.593 309.631C893.593 309.131 891.893 309.031 889.893 309.431C884.593 310.231 881.593 307.331 881.593 301.531C881.593 295.531 883.393 293.531 888.693 293.231C894.393 293.031 894.393 293.031 892.193 291.331C889.793 289.531 885.893 289.431 882.693 291.231Z" fill="white"/>
<path d="M921.294 290.931C920.394 291.531 918.694 291.631 917.594 291.331C915.694 290.731 915.594 291.231 915.594 305.731C915.594 318.531 915.794 320.831 917.094 320.831C918.194 320.831 918.594 319.731 918.594 316.931V313.131L923.494 312.631C928.794 312.131 930.994 310.531 932.594 306.331C936.294 296.631 928.894 286.531 921.294 290.931ZM927.594 294.831C932.194 299.431 928.694 309.831 922.594 309.831C920.194 309.831 919.594 309.331 919.094 306.731C918.094 302.331 919.394 295.031 921.394 293.831C923.894 292.431 925.394 292.631 927.594 294.831Z" fill="white"/>
<path d="M942.594 291.131C939.094 292.931 937.694 296.431 938.094 302.131C938.494 309.031 941.094 312.231 946.494 312.631C949.994 312.931 951.094 312.431 953.594 309.931C956.194 307.331 956.594 306.231 956.594 301.331C956.594 296.431 956.194 295.331 953.694 292.731C950.494 289.531 946.794 289.031 942.594 291.131ZM950.494 294.531C951.594 295.531 952.794 298.131 953.194 300.331C954.294 307.731 946.994 313.031 943.194 307.631C939.694 302.731 942.394 292.931 947.194 292.831C947.894 292.831 949.294 293.631 950.494 294.531Z" fill="white"/>
<path d="M1006.29 290.831C1000.09 294.631 1000.29 308.431 1006.49 311.831C1010.39 313.831 1018.59 312.431 1018.59 309.731C1018.59 309.131 1016.69 309.031 1013.69 309.431C1009.39 310.031 1008.69 309.831 1007.19 307.731C1006.29 306.431 1005.59 304.631 1005.59 303.631C1005.59 301.731 1006.09 301.631 1014.59 301.431C1018.89 301.331 1019.09 301.131 1019.39 298.231C1019.79 293.931 1016.99 290.831 1012.09 290.231C1009.89 290.031 1007.29 290.231 1006.29 290.831ZM1014.69 294.931C1017.59 297.831 1015.89 299.431 1010.19 299.031C1005.09 298.631 1004.19 296.931 1007.79 294.431C1010.79 292.331 1012.19 292.431 1014.69 294.931Z" fill="white"/>
<path d="M1092.39 291.031C1087.79 292.631 1089.19 293.831 1095.69 293.831C1101.69 293.831 1101.69 293.831 1101.39 296.531C1101.19 298.831 1100.49 299.431 1098.09 299.631C1093.79 300.031 1089.69 301.831 1088.59 303.831C1087.69 305.631 1089.69 310.631 1091.89 312.031C1093.89 313.331 1098.29 312.931 1099.59 311.331C1100.79 309.931 1101.09 309.931 1102.69 311.431C1103.79 312.431 1104.79 312.931 1105.09 312.731C1105.29 312.431 1105.19 308.031 1104.89 302.931C1104.39 295.631 1103.89 293.131 1102.39 291.631C1100.39 289.631 1096.69 289.431 1092.39 291.031ZM1101.59 304.331C1101.59 306.231 1098.09 309.831 1096.19 309.831C1094.59 309.831 1091.59 307.231 1091.59 305.831C1091.59 304.331 1094.89 302.931 1098.39 302.831C1100.59 302.831 1101.59 303.331 1101.59 304.331Z" fill="white"/>
<path d="M1113.09 292.331C1109.89 295.431 1109.79 300.131 1112.69 302.231L1114.79 303.631L1112.09 308.231C1109.59 312.431 1109.59 312.831 1111.29 312.831C1112.49 312.831 1114.29 311.031 1116.09 308.331C1119.59 302.731 1122.19 302.531 1121.79 307.931C1121.59 310.631 1121.89 311.731 1123.19 312.231C1124.09 312.631 1125.09 312.631 1125.39 312.431C1126.39 311.331 1125.49 291.331 1124.29 290.631C1121.59 288.931 1115.49 289.831 1113.09 292.331ZM1121.59 296.831C1121.59 300.431 1121.29 300.831 1119.19 300.831C1112.29 300.831 1112.89 293.231 1119.89 292.931C1121.19 292.831 1121.59 293.631 1121.59 296.831Z" fill="white"/>
<path d="M895.594 292.231C895.594 293.231 896.494 293.631 898.394 293.531L901.094 293.331L901.394 303.031C901.594 310.531 901.994 312.831 902.994 312.831C904.994 312.831 905.394 311.231 905.394 302.831C905.494 292.831 905.394 293.031 906.894 293.131C909.894 293.231 911.594 292.731 911.594 291.831C911.594 291.231 908.294 290.831 903.594 290.831C897.294 290.831 895.594 291.131 895.594 292.231Z" fill="white"/>
<path d="M962.594 301.831C962.594 310.231 962.894 312.631 963.894 312.231C964.494 311.931 967.394 308.731 970.094 305.031L975.094 298.331L975.594 305.331C975.994 310.931 976.394 312.331 977.894 312.631C979.394 312.931 979.594 311.931 979.594 301.931C979.594 293.431 979.294 290.831 978.294 290.831C977.594 290.831 974.794 293.731 972.194 297.331C969.594 300.931 966.994 303.831 966.494 303.831C965.994 303.831 965.594 300.931 965.594 297.331C965.594 292.231 965.294 290.831 964.094 290.831C962.894 290.831 962.594 292.731 962.594 301.831Z" fill="white"/>
<path d="M982.594 292.231C982.594 293.131 983.694 293.531 985.894 293.431L989.094 293.331L988.794 300.331C988.494 307.831 989.794 313.231 991.894 312.631C992.694 312.331 993.294 309.031 993.594 302.731C994.094 293.331 994.094 293.331 996.894 293.031C998.394 292.831 999.594 292.231 999.594 291.731C999.594 291.231 995.794 290.831 991.094 290.831C984.494 290.831 982.594 291.131 982.594 292.231Z" fill="white"/>
<path d="M1026.19 293.932C1025.89 295.632 1025.59 299.032 1025.59 301.532C1025.59 304.932 1024.99 306.432 1023.09 308.232C1019.99 311.132 1019.89 313.032 1022.89 312.632C1025.79 312.232 1028.29 307.032 1029.19 299.832C1029.89 293.632 1030.59 292.532 1033.19 293.032C1034.89 293.332 1035.09 294.532 1035.39 303.132C1035.59 311.832 1035.89 312.932 1037.39 312.632C1038.89 312.332 1039.09 310.732 1039.39 301.532L1039.69 290.832H1033.29C1026.89 290.832 1026.79 290.832 1026.19 293.932Z" fill="white"/>
<path d="M1046.49 291.031C1046.09 292.331 1045.79 309.731 1046.19 311.031C1047.09 314.031 1055.99 313.531 1059.09 310.331C1064.09 305.431 1060.99 298.831 1053.59 298.831H1049.59V294.831C1049.59 291.931 1049.19 290.831 1048.09 290.831C1047.29 290.831 1046.59 290.931 1046.49 291.031ZM1057.39 304.631C1057.89 307.831 1055.79 310.031 1052.69 309.631C1050.49 309.331 1050.09 308.731 1049.79 305.531L1049.49 301.731L1053.29 302.031C1056.39 302.231 1057.19 302.731 1057.39 304.631Z" fill="white"/>
<path d="M1066.59 301.831C1066.59 310.731 1066.89 312.831 1067.99 312.831C1069.09 312.831 1069.59 311.431 1069.79 308.031L1070.09 303.331L1074.89 303.031L1079.59 302.731V307.831C1079.59 312.231 1079.89 312.931 1081.39 312.631C1082.89 312.331 1083.09 311.031 1083.09 301.831C1083.09 292.631 1082.89 291.331 1081.39 291.031C1079.89 290.731 1079.59 291.431 1079.59 295.331V299.931L1074.89 299.631L1070.09 299.331L1069.79 295.031C1069.59 292.231 1068.99 290.831 1067.99 290.831C1066.89 290.831 1066.59 292.931 1066.59 301.831Z" fill="white"/>
<path d="M903.893 324.332C900.493 325.832 898.893 327.932 898.593 331.832C898.093 338.032 898.693 340.632 901.293 343.332C903.693 345.632 904.693 345.932 908.293 345.532C913.693 344.932 915.293 343.632 916.693 338.532C918.193 332.732 916.493 327.332 912.293 324.832C908.493 322.532 908.093 322.432 903.893 324.332ZM911.893 328.932C915.493 333.332 913.093 342.832 908.293 342.832C904.093 342.832 901.593 339.232 901.593 333.432C901.593 326.832 907.893 324.032 911.893 328.932Z" fill="white"/>
<path d="M981.594 323.531C976.294 324.231 974.594 324.931 974.594 326.431C974.594 327.531 975.194 327.831 976.594 327.431C977.694 327.131 979.494 326.531 980.594 326.231C983.294 325.531 985.594 327.431 985.594 330.331C985.594 332.231 984.894 332.631 981.094 333.131C975.594 333.731 972.594 336.131 972.594 339.931C972.594 344.731 978.794 347.431 983.894 344.731C985.494 343.831 986.094 343.831 986.394 344.731C986.594 345.331 987.394 345.831 988.094 345.831C989.194 345.831 989.294 343.831 988.894 336.031C988.694 330.731 988.294 325.831 988.094 325.231C987.694 323.831 984.894 323.131 981.594 323.531ZM985.594 338.231C985.594 341.331 983.394 343.031 979.894 342.631C974.194 342.031 976.294 335.831 982.194 335.831C985.094 335.831 985.594 336.131 985.594 338.231Z" fill="white"/>
<path d="M1049.89 323.531C1046.89 323.831 1045.19 324.631 1044.09 326.131C1041.89 329.331 1042.19 333.331 1044.79 335.031L1047.09 336.531L1044.29 340.731L1041.49 345.031L1043.79 344.631C1045.09 344.431 1047.09 342.831 1048.49 340.531C1051.29 336.331 1053.59 335.731 1053.59 339.231C1053.59 342.931 1054.59 344.831 1056.69 344.831C1058.39 344.831 1058.59 343.931 1058.59 334.831C1058.59 326.031 1058.39 324.831 1056.69 323.831C1055.59 323.331 1054.59 322.931 1054.39 323.031C1054.19 323.131 1052.19 323.331 1049.89 323.531ZM1054.39 330.131C1054.79 334.431 1053.39 335.431 1049.29 333.931C1044.29 332.031 1046.69 325.431 1052.09 326.131C1053.59 326.231 1054.19 327.231 1054.39 330.131Z" fill="white"/>
<path d="M879.094 333.531C879.394 345.431 879.294 344.831 881.094 344.831C882.194 344.831 882.594 343.631 882.594 340.331C882.594 337.831 882.994 335.831 883.494 335.831C884.094 335.831 885.894 337.831 887.694 340.331C889.994 343.531 891.594 344.831 893.394 344.831H895.794L892.794 341.031C887.394 334.131 887.294 333.731 891.294 328.731C894.294 324.931 894.494 324.331 892.994 323.931C891.994 323.731 890.694 324.431 890.094 325.331C888.294 328.431 884.394 332.831 883.494 332.831C882.994 332.831 882.594 330.831 882.594 328.331C882.594 324.531 882.294 323.831 880.694 323.831C878.994 323.831 878.794 324.631 879.094 333.531Z" fill="white"/>
<path d="M922.594 334.331C922.594 343.031 922.894 344.831 924.094 344.831C925.294 344.831 925.594 343.431 925.594 338.331C925.594 334.731 925.894 331.831 926.394 331.831C926.794 331.831 928.394 333.631 929.894 335.831C931.494 338.031 933.094 339.831 933.594 339.831C934.094 339.831 935.394 338.231 936.594 336.331C937.794 334.431 939.194 332.831 939.694 332.831C940.194 332.831 940.594 335.531 940.594 338.831C940.594 344.131 940.794 344.831 942.594 344.831C944.494 344.831 944.594 344.131 944.594 334.231C944.594 323.831 944.594 323.731 942.394 324.031C940.794 324.231 939.194 326.031 937.294 329.531C935.694 332.431 934.194 334.831 933.794 334.831C933.394 334.831 931.594 332.331 929.794 329.331C927.594 325.631 925.794 323.831 924.494 323.831C922.694 323.831 922.594 324.631 922.594 334.331Z" fill="white"/>
<path d="M951.594 334.331C951.594 340.631 951.994 344.831 952.594 344.831C953.194 344.831 953.594 341.131 953.594 335.831V326.831H958.594H963.594V335.831C963.594 342.831 963.894 344.831 964.994 344.831C966.994 344.831 967.594 342.531 967.594 334.331C967.594 323.731 967.694 323.831 958.994 323.831H951.594V334.331Z" fill="white"/>
<path d="M996.294 324.531C995.894 324.831 995.594 329.631 995.594 335.031C995.594 344.131 995.694 344.831 997.594 344.831C999.294 344.831 999.594 344.131 999.594 340.331V335.831H1004.09H1008.59V340.331C1008.59 344.131 1008.89 344.831 1010.59 344.831C1012.49 344.831 1012.59 344.131 1012.59 334.231C1012.59 324.731 1012.39 323.731 1010.89 324.031C1009.49 324.231 1009.09 325.431 1008.99 328.331V332.331H1004.49H1000.09L999.794 328.031C999.494 324.131 998.094 322.731 996.294 324.531Z" fill="white"/>
<path d="M1019.59 334.331C1019.59 342.131 1019.89 344.831 1020.89 344.831C1021.59 344.831 1024.19 342.131 1026.59 338.831C1029.09 335.531 1031.39 332.831 1031.89 332.831C1032.29 332.831 1032.59 335.531 1032.59 338.831C1032.59 344.131 1032.79 344.831 1034.59 344.831C1036.49 344.831 1036.59 344.131 1036.59 334.331C1036.59 328.531 1036.19 323.831 1035.69 323.831C1034.39 323.831 1032.79 325.631 1028.59 331.731C1026.69 334.531 1024.79 336.831 1024.39 336.831C1023.89 336.831 1023.59 333.931 1023.59 330.331C1023.59 324.531 1023.39 323.831 1021.59 323.831C1019.69 323.831 1019.59 324.531 1019.59 334.331Z" fill="white"/>
</svg>
